<svg width="110" height="27" viewBox="0 0 110 27" fill="none" xmlns="http://www.w3.org/2000/svg">
<path d="M9.252 26V2.744H8.712L3.816 11.708H0.648L6.66 0.799998H12.168V26H9.252ZM25.9549 26.504C24.1789 26.504 22.5829 26.168 21.1669 25.496C19.7749 24.824 18.6709 23.852 17.8549 22.58C17.0629 21.308 16.6669 19.772 16.6669 17.972V17.288H19.5829V17.936C19.5829 19.784 20.1709 21.236 21.3469 22.292C22.5229 23.348 24.0589 23.876 25.9549 23.876C27.8749 23.876 29.3629 23.384 30.4189 22.4C31.4989 21.392 32.0389 20.132 32.0389 18.62V18.332C32.0389 17.228 31.7749 16.34 31.2469 15.668C30.7189 14.972 29.9989 14.468 29.0869 14.156C28.1989 13.82 27.2149 13.652 26.1349 13.652H22.0309V10.016L31.6429 3.86V3.428H17.2789V0.799998H34.7389V4.868L25.3429 10.916V11.348H27.1429C28.5589 11.348 29.8549 11.612 31.0309 12.14C32.2309 12.644 33.1789 13.412 33.8749 14.444C34.5949 15.452 34.9549 16.724 34.9549 18.26V18.656C34.9549 20.24 34.5829 21.62 33.8389 22.796C33.0949 23.972 32.0509 24.884 30.7069 25.532C29.3629 26.18 27.7789 26.504 25.9549 26.504ZM49.5174 26.504C47.6934 26.504 46.2654 26.156 45.2334 25.46C44.2254 24.764 43.4934 23.972 43.0374 23.084H42.5334V26H39.7614V0.799998H42.6054V11.168H43.1094C43.3974 10.616 43.8054 10.1 44.3334 9.62C44.8614 9.116 45.5454 8.708 46.3854 8.396C47.2494 8.06 48.2934 7.892 49.5174 7.892C51.0534 7.892 52.4454 8.264 53.6934 9.008C54.9654 9.728 55.9734 10.772 56.7174 12.14C57.4614 13.484 57.8334 15.092 57.8334 16.964V17.432C57.8334 19.304 57.4494 20.924 56.6814 22.292C55.9374 23.66 54.9294 24.704 53.6574 25.424C52.4094 26.144 51.0294 26.504 49.5174 26.504ZM48.7614 23.984C50.5854 23.984 52.0614 23.408 53.1894 22.256C54.3414 21.08 54.9174 19.448 54.9174 17.36V17.036C54.9174 14.948 54.3414 13.328 53.1894 12.176C52.0614 11 50.5854 10.412 48.7614 10.412C46.9614 10.412 45.4734 11 44.2974 12.176C43.1454 13.328 42.5694 14.948 42.5694 17.036V17.36C42.5694 19.448 43.1454 21.08 44.2974 22.256C45.4734 23.408 46.9614 23.984 48.7614 23.984ZM62.9294 26V0.799998H65.7734V11.204H66.2774C66.5174 10.676 66.8774 10.184 67.3574 9.728C67.8614 9.248 68.4974 8.852 69.2654 8.54C70.0574 8.228 71.0534 8.072 72.2534 8.072C73.5734 8.072 74.7494 8.36 75.7814 8.936C76.8374 9.488 77.6774 10.304 78.3014 11.384C78.9254 12.44 79.2374 13.76 79.2374 15.344V26H76.3934V15.56C76.3934 13.808 75.9494 12.536 75.0614 11.744C74.1974 10.952 73.0214 10.556 71.5334 10.556C69.8294 10.556 68.4374 11.108 67.3574 12.212C66.3014 13.316 65.7734 14.96 65.7734 17.144V26H62.9294ZM90.4075 26.504C89.1835 26.504 88.0675 26.288 87.0595 25.856C86.0515 25.424 85.2595 24.8 84.6835 23.984C84.1075 23.168 83.8195 22.172 83.8195 20.996C83.8195 19.796 84.1075 18.812 84.6835 18.044C85.2595 17.252 86.0515 16.664 87.0595 16.28C88.0675 15.872 89.1955 15.668 90.4435 15.668H96.3835V14.372C96.3835 13.124 96.0115 12.14 95.2675 11.42C94.5475 10.7 93.4675 10.34 92.0275 10.34C90.6115 10.34 89.5075 10.688 88.7155 11.384C87.9235 12.056 87.3835 12.968 87.0955 14.12L84.4315 13.256C84.7195 12.272 85.1755 11.384 85.7995 10.592C86.4235 9.776 87.2515 9.128 88.2835 8.648C89.3395 8.144 90.5995 7.892 92.0635 7.892C94.3195 7.892 96.0715 8.48 97.3195 9.656C98.5675 10.808 99.1915 12.44 99.1915 14.552V22.508C99.1915 23.228 99.5275 23.588 100.2 23.588H101.82V26H99.3355C98.5435 26 97.9075 25.784 97.4275 25.352C96.9475 24.896 96.7075 24.296 96.7075 23.552V23.372H96.2755C96.0115 23.828 95.6515 24.308 95.1955 24.812C94.7635 25.292 94.1635 25.688 93.3955 26C92.6275 26.336 91.6315 26.504 90.4075 26.504ZM90.7315 24.056C92.4115 24.056 93.7675 23.564 94.7995 22.58C95.8555 21.572 96.3835 20.168 96.3835 18.368V17.972H90.5515C89.4235 17.972 88.4875 18.224 87.7435 18.728C87.0235 19.208 86.6635 19.94 86.6635 20.924C86.6635 21.908 87.0355 22.676 87.7795 23.228C88.5475 23.78 89.5315 24.056 90.7315 24.056ZM105.715 26V8.396H108.559V26H105.715ZM107.155 5.66C106.531 5.66 106.003 5.456 105.571 5.048C105.163 4.64 104.959 4.124 104.959 3.5C104.959 2.852 105.163 2.324 105.571 1.916C106.003 1.508 106.531 1.304 107.155 1.304C107.779 1.304 108.295 1.508 108.703 1.916C109.111 2.324 109.315 2.852 109.315 3.5C109.315 4.124 109.111 4.64 108.703 5.048C108.295 5.456 107.779 5.66 107.155 5.66Z" fill="white"/>
</svg>
